<mxfile host="app.diagrams.net" modified="2022-06-17T11:59:05.638Z" agent="5.0 (Macintosh)" etag="mUeoqjv_L4nGffnR1lgf" version="20.0.1" type="github">
  <diagram id="3ls2nBI1dc7plf90b4Ae" name="Page-1">
    <mxGraphModel dx="2066" dy="1169" grid="1" gridSize="10" guides="1" tooltips="1" connect="1" arrows="1" fold="1" page="1" pageScale="1" pageWidth="827" pageHeight="1169" math="0" shadow="0">
      <root>
        <mxCell id="0" />
        <mxCell id="1" parent="0" />
        <mxCell id="FBVoEUbd7-raGJen0vnE-1" value="" style="whiteSpace=wrap;html=1;aspect=fixed;" vertex="1" parent="1">
          <mxGeometry x="230" y="430" width="80" height="80" as="geometry" />
        </mxCell>
      </root>
    </mxGraphModel>
  </diagram>
</mxfile>
